<svg height="512pt" viewBox="0 0 512 512" width="512pt" xmlns="http://www.w3.org/2000/svg"><g fill-rule="evenodd"><path d="m10 367.203125h57.613281c5.523438 0 10-4.476563 10-10v-18.804687h95.988281v95.988281h-18.804687c-5.523437 0-10 4.476562-10 10v57.613281c0 5.523438 4.476563 10 10 10h57.609375c5.523438 0 10-4.476562 10-10v-18.808594h211.980469v18.808594c0 5.523438 4.476562 10 10 10h57.613281c5.523438 0 10-4.476562 10-10v-57.613281c0-5.523438-4.476562-10-10-10h-18.808594v-65.988281c0-5.523438-4.476562-10-10-10-5.523437 0-10 4.476562-10 10v65.988281h-18.804687c-5.523438 0-10 4.476562-10 10v18.808593h-211.976563v-18.808593c0-5.523438-4.476562-10-10-10h-18.808594v-95.988281h95.988282v18.808593c0 5.519531 4.476562 10 10 10h57.613281c5.523437 0 10-4.480469 10-10v-57.613281c0-5.523438-4.476563-10-10-10h-18.808594v-95.988281h95.988281v18.804687c0 5.523438 4.476563 10 10 10h18.808594v65.988282c0 5.523437 4.476563 10 10 10 5.523438 0 10-4.476563 10-10v-65.988282h18.808594c5.523438 0 10-4.476562 10-10v-57.613281c0-5.523437-4.476562-10-10-10h-57.613281c-5.523438 0-10 4.476563-10 10v18.808594h-95.988281v-95.992188h18.804687c5.523437 0 10-4.476562 10-10v-57.613281c0-5.523438-4.476563-10-10-10h-57.609375c-5.523438 0-10 4.476562-10 10v18.808594h-211.980469v-18.808594c0-5.523438-4.476562-10-10-10h-57.613281c-5.523438 0-10 4.476562-10 10v57.613281c0 5.523438 4.476562 10 10 10h18.808594v65.988281c0 5.523438 4.476562 10 10 10 5.519531 0 10-4.476562 10-10v-65.988281h18.804687c5.523438 0 10-4.476562 10-10v-18.804687h211.980469v18.804687c0 5.523438 4.476562 10 10 10h18.804688v95.988281h-95.988282v-18.804687c0-5.523437-4.476562-10-10-10h-57.613281c-5.523437 0-10 4.476563-10 10v57.613281c0 5.519532 4.476563 10 10 10h18.808594v95.988282h-95.992188v-18.808594c0-5.523438-4.476562-10-10-10h-18.804687v-65.988282c0-5.523437-4.480469-10-10-10-5.523438 0-10 4.476563-10 10v65.988282h-18.808594c-5.523438 0-10 4.476562-10 10v57.613281c0 5.523437 4.476562 10 10 10zm444.386719 87.183594h37.613281v37.613281h-37.613281zm0-289.589844h37.613281v37.613281h-37.613281zm-396.773438-107.183594h-37.613281v-37.613281h37.613281zm251.976563 0v-37.613281h37.613281v37.613281zm37.613281 251.976563v37.613281h-37.613281v-37.613281zm-124.792969-97.179688v-18.808594h95.988282v95.988282h-18.808594c-5.523438 0-10 4.476562-10 10v18.808594h-95.988282v-95.988282h18.808594c5.523438 0 10-4.476562 10-10zm-57.613281-10v-37.613281h37.613281v37.613281zm37.613281 251.976563v37.613281h-37.613281v-37.613281zm-182.410156-144.796875h37.613281v37.613281h-37.613281zm0 0"/><path d="m38.808594 193.601562c5.507812 0 10-4.492187 10-10 0-5.507812-4.492188-10-10-10-5.507813 0-10 4.492188-10 10 0 5.507813 4.492187 10 10 10zm0 0"/><path d="m473.191406 318.398438c-5.507812 0-10 4.492187-10 10 0 5.507812 4.492188 10 10 10 5.507813 0 10-4.492188 10-10 0-5.507813-4.492187-10-10-10zm0 0"/></g></svg>